<?xml version="1.0" encoding="UTF-8"?>
<svg xmlns="http://www.w3.org/2000/svg" id="Isolation_Mode" data-name="Isolation Mode" viewBox="0 0 24 24" width="512" height="512"><path fill="#bfbfbf" d="M12,2.99a9.03,9.03,0,0,1,6.36,2.65L15.986,8.014h5.83a1.146,1.146,0,0,0,1.146-1.146V1.038L20.471,3.529A11.98,11.98,0,0,0,0,12H2.99A9.02,9.02,0,0,1,12,2.99Z"/><path fill="#bfbfbf" d="M21.01,12A8.994,8.994,0,0,1,5.64,18.36l2.374-2.374H1.993a.956.956,0,0,0-.955.955v6.021l2.491-2.491A11.98,11.98,0,0,0,24,12Z"/></svg>
