<?xml version="1.0" encoding="UTF-8"?>
<svg xmlns="http://www.w3.org/2000/svg" id="Layer_1" data-name="Layer 1" viewBox="0 0 24 24">
  <path fill="#bfbfbf" d="m.527,1.839L1.846.52C2.414-.048,3.293-.164,3.989.238l3.832,2.211c.733.423,1.185,1.205,1.185,2.051v3.086s4.726,4.726,4.726,4.726c1.115-.525,2.482-.339,3.404.58l5.889,5.872c1.111,1.108,1.325,2.916.329,4.129-1.145,1.395-3.212,1.472-4.458.229l-6.01-5.993c-.926-.923-1.109-2.295-.574-3.409l-4.72-4.72h-3.086c-.846,0-1.629-.452-2.051-1.185L.245,3.982C-.156,3.286-.041,2.407.527,1.839Zm10.479,2.661v2.258l3.315,3.314c1.524-.212,3.104.283,4.227,1.403l2.208,2.202c1.887-1.319,3.164-3.478,3.249-5.881.028-.794-.065-1.569-.279-2.317-.131-.457-1.126-1.18-1.946-.36-.82.82-3.316,3.316-3.316,3.316-.787.787-2.074.764-2.853-.036-.799-.779-.824-2.067-.037-2.854,0,0,2.496-2.496,3.316-3.316.82-.82.097-1.815-.36-1.946-.748-.214-1.523-.308-2.317-.279-2.211.079-4.213,1.168-5.547,2.811.22.526.34,1.097.34,1.684Zm-.938,9.804l-2.293-2.293L.859,18.906c-1.162,1.163-1.155,3.059-.007,4.231,1.172,1.149,3.068,1.156,4.231-.006l5.615-5.599c-.568-.974-.792-2.113-.63-3.228Z"/>
</svg>
