<?xml version="1.0" encoding="utf-8"?><!-- Uploaded to: SVG Repo, www.svgrepo.com, Generator: SVG Repo Mixer Tools -->
<svg width="800px" height="800px" viewBox="0 0 24 24" fill="none" xmlns="http://www.w3.org/2000/svg">
<path d="M14 19H16C17.1046 19 18 18.1046 18 17V14.5616C18 13.6438 18.6246 12.8439 19.5149 12.6213L21.0299 12.2425C21.2823 12.1794 21.2823 11.8206 21.0299 11.7575L19.5149 11.3787C18.6246 11.1561 18 10.3562 18 9.43845V5H14" stroke="#33363F" stroke-width="2"/>
<path d="M10 5H8C6.89543 5 6 5.89543 6 7V9.43845C6 10.3562 5.37541 11.1561 4.48507 11.3787L2.97014 11.7575C2.71765 11.8206 2.71765 12.1794 2.97014 12.2425L4.48507 12.6213C5.37541 12.8439 6 13.6438 6 14.5616V19H10" stroke="#33363F" stroke-width="2"/>
</svg>