<svg viewBox="0 0 400 394" fill="#fff" xmlns="http://www.w3.org/2000/svg" fill-rule="evenodd" clip-rule="evenodd"
    stroke-linejoin="round" stroke-miterlimit="2">
    <path
        d="M292.32 124.084a3.071 3.071 0 015.758 0l7.448 20.1a5.535 5.535 0 003.264 3.264l20.1 7.448a3.071 3.071 0 010 5.758l-20.1 7.448a5.535 5.535 0 00-3.264 3.264l-7.448 20.1a3.071 3.071 0 01-5.758 0l-7.448-20.1a5.535 5.535 0 00-3.264-3.264l-20.1-7.448a3.071 3.071 0 010-5.758l20.1-7.448a5.535 5.535 0 003.264-3.264l7.448-20.1zM230.574 171.807a.959.959 0 011.798 0l2.325 6.275a1.722 1.722 0 001.019 1.019l6.275 2.325a.959.959 0 010 1.798l-6.275 2.325a1.722 1.722 0 00-1.019 1.019l-2.325 6.275a.959.959 0 01-1.798 0l-2.325-6.275a1.722 1.722 0 00-1.019-1.019l-6.275-2.325a.959.959 0 010-1.798l6.275-2.325a1.722 1.722 0 001.019-1.019l2.325-6.275z" />
    <path
        d="M134.619 368.78h-11.195a9.522 9.522 0 01-9.522-9.522V256.902c-25.848-7.364-44.795-31.171-44.795-59.369v-.337c0-33.883 27.508-61.392 61.392-61.392h.337c5.664 0 11.15.764 16.362 2.196 27.207-41.922 69.19-73.385 118.546-86.986a19.562 19.562 0 0119.571 32.163c-29.856 32.417-68.096 57.012-111.269 70.289 11.426 11.206 18.518 26.814 18.518 44.066 0 12.662-3.82 24.438-10.37 34.238a1.897 1.897 0 001.659 2.97 99.638 99.638 0 014.386-.101c47.677 0 86.385 38.708 86.385 86.385 0 15.64-4.165 30.315-11.446 42.975a9.556 9.556 0 01-8.268 4.763c-11.656.009-40.748.013-69.501.015h-2.538v-26.11c0-23.568 19.134-42.702 42.702-42.702a6.351 6.351 0 006.348-6.348 6.351 6.351 0 00-6.348-6.348c-30.575 0-55.398 24.823-55.398 55.398v26.111h-22.862v-75.161a6.351 6.351 0 00-6.348-6.348 6.351 6.351 0 00-6.348 6.348v75.161zm-10.603-187.192c-9.066 0-16.427 7.361-16.427 16.427 0 9.066 7.361 16.427 16.427 16.427 9.066 0 16.427-7.361 16.427-16.427 0-9.066-7.361-16.427-16.427-16.427zM287.737 310.81a4.99 4.99 0 017.995-4.472c8.569 6.444 14.125 16.693 14.125 28.229 0 15.473-9.995 28.63-23.876 33.36a4.928 4.928 0 01-6.106-6.702 100.276 100.276 0 008.378-40.199c0-3.449-.175-6.857-.516-10.216z" />
    <path
        d="M115.298 122.081c8.47-33.878 25.671-65.545 50.62-91.329a19.566 19.566 0 0133.104 18.12 247.67 247.67 0 01-5.382 19.508 223.442 223.442 0 00-53.405 52.805 77.266 77.266 0 00-9.738-.614 76.89 76.89 0 00-15.2 1.51z" />
</svg>
