<svg id="svg" version="1.1" xmlns="http://www.w3.org/2000/svg" xmlns:xlink="http://www.w3.org/1999/xlink" width="400" height="400" viewBox="0, 0, 400,400"><g id="svgg">

<path id="path0" d="
M204.940 98.759 C 197.479 100.224,185.836 110.929,174.724 126.543 C 166.723 137.785,163.853 143.042,158.832 155.652 C 157.726 158.429,157.969 158.615,161.532 157.722 C 164.924 156.871,169.215 156.344,172.870 156.329 C 175.140 156.320,175.906 156.185,175.906 155.792 C 175.906 154.233,183.858 140.492,188.614 133.833 C 197.245 121.747,213.237 105.387,216.419 105.387 C 217.550 105.387,217.542 104.292,216.400 102.703 C 213.864 99.175,209.852 97.794,204.940 98.759 
M247.209 115.958 C 235.377 118.962,218.271 129.251,204.310 141.761 C 196.941 148.364,187.963 157.774,183.964 163.088 C 181.469 166.402,181.594 166.353,177.669 165.549 C 148.517 159.577,123.715 187.667,136.219 212.495 C 140.135 220.272,147.787 226.777,156.121 229.415 C 161.950 231.260,161.410 227.633,161.410 264.981 C 161.410 293.483,161.476 296.974,162.026 297.523 C 162.955 298.452,172.439 298.425,173.214 297.491 C 173.658 296.956,173.785 290.391,173.947 259.694 L 174.143 222.544 175.220 221.467 C 176.639 220.049,178.946 219.975,180.360 221.303 C 182.267 223.095,182.291 223.642,182.130 261.328 C 181.950 303.050,181.080 298.139,188.651 298.139 C 195.568 298.139,194.860 299.973,195.140 281.332 C 195.395 264.398,195.485 263.656,197.896 258.797 C 202.789 248.934,210.663 243.758,220.928 243.656 C 226.016 243.606,226.893 243.858,227.812 245.634 C 229.748 249.378,227.608 251.209,220.917 251.530 C 212.020 251.957,205.808 257.179,203.689 266.014 C 202.828 269.603,202.967 295.763,203.854 297.117 L 204.523 298.139 219.711 298.139 C 239.508 298.139,241.016 297.762,247.129 291.288 C 259.343 278.354,257.256 253.553,242.600 237.453 C 233.813 227.801,219.060 220.178,209.166 220.177 C 207.528 220.176,205.104 220.063,203.779 219.925 L 201.371 219.673 201.371 218.174 C 201.371 217.043,201.836 215.962,203.263 213.776 C 209.580 204.100,209.551 190.388,203.192 180.057 C 199.447 173.973,199.525 173.858,209.899 170.222 C 235.186 161.357,263.286 137.652,263.269 125.198 C 263.259 118.149,255.703 113.802,247.209 115.958 
M173.477 187.037 C 180.102 190.498,178.987 200.136,171.769 201.796 C 162.901 203.835,158.743 190.712,167.091 187.033 C 168.652 186.345,172.157 186.347,173.477 187.037 
M149.178 202.765 C 150.892 203.965,150.110 206.464,148.021 206.464 C 145.792 206.464,145.225 203.734,147.213 202.575 C 148.114 202.051,148.166 202.056,149.178 202.765 
M282.164 249.777 C 281.430 250.291,281.293 250.754,281.293 252.716 L 281.293 255.044 279.950 255.044 C 277.322 255.044,277.375 254.727,277.375 270.290 C 277.375 285.899,277.323 285.602,280.050 285.602 L 281.293 285.602 281.293 288.149 C 281.293 291.848,284.082 293.808,286.129 291.546 C 287.234 290.325,287.107 251.063,285.994 249.951 C 285.057 249.014,283.363 248.937,282.164 249.777 
M265.469 260.346 C 263.933 261.882,264.017 279.682,265.567 280.936 C 266.751 281.894,268.415 281.892,269.594 280.932 L 270.519 280.178 270.414 270.648 C 270.313 261.523,270.274 261.087,269.489 260.431 C 268.478 259.585,266.277 259.538,265.469 260.346 
M293.830 264.447 L 293.830 267.581 306.384 267.581 L 318.939 267.581 319.900 266.619 C 321.194 265.325,321.130 263.871,319.717 262.458 L 318.572 261.312 306.201 261.312 L 293.830 261.312 293.830 264.447 
M293.830 277.767 L 293.830 280.901 306.323 280.901 C 320.689 280.901,320.648 280.910,320.648 277.767 C 320.648 274.624,320.689 274.633,306.323 274.633 L 293.830 274.633 293.830 277.767 
M149.219 285.742 C 143.634 287.774,139.455 294.137,141.648 297.268 C 142.220 298.085,142.546 298.139,146.937 298.139 C 153.389 298.139,153.239 298.314,153.096 290.979 L 152.987 285.406 151.812 285.317 C 151.166 285.267,149.999 285.459,149.219 285.742 " stroke="#f5f6f7" stroke-width="2px" fill="#f5f6f7" fill-rule="nonzero"></path>
<path id="path1" d="M0.000 199.380 C 0.000 309.039,0.110 399.046,0.243 399.395 C 0.969 401.286,-11.406 401.175,200.196 401.175 C 376.456 401.175,397.813 401.111,398.844 400.578 L 400.000 399.980 400.000 199.990 L 400.000 0.000 200.000 0.000 L 0.000 0.000 0.000 199.380 
M212.537 99.257 C 219.142 102.339,220.141 110.026,214.950 117.827 C 213.982 119.281,209.010 124.789,203.901 130.069 C 189.995 144.436,182.759 152.509,180.773 155.871 L 180.162 156.905 172.647 156.912 C 166.073 156.919,164.725 157.031,161.883 157.807 C 157.039 159.129,157.047 159.169,160.484 151.028 C 169.976 128.543,191.236 102.788,203.526 98.885 C 206.191 98.039,210.289 98.208,212.537 99.257 
M256.276 115.816 C 264.781 118.202,265.787 126.735,258.674 136.141 C 247.205 151.306,226.691 165.051,204.803 172.236 L 201.379 173.359 201.375 175.062 C 201.372 176.431,201.714 177.275,203.124 179.376 C 210.218 189.950,210.125 204.081,202.891 214.785 C 201.867 216.300,201.371 217.466,201.371 218.361 L 201.371 219.689 207.346 219.873 C 225.947 220.445,245.161 234.434,252.085 252.446 C 258.961 270.332,253.961 290.010,240.940 296.309 C 236.811 298.307,234.689 298.525,219.313 298.528 C 204.934 298.531,204.165 298.443,203.373 296.706 C 202.792 295.430,202.780 269.772,203.360 266.575 C 204.951 257.800,211.995 251.636,220.875 251.250 C 225.992 251.027,226.975 250.689,227.846 248.854 C 230.805 242.616,216.877 241.696,207.983 247.542 C 202.695 251.017,198.940 255.838,196.797 261.904 L 195.690 265.034 195.590 280.118 C 195.482 296.383,195.466 296.601,194.309 297.757 C 193.165 298.901,184.310 298.921,182.903 297.782 L 181.978 297.033 181.783 259.944 L 181.587 222.854 180.307 221.711 C 178.083 219.724,175.380 220.377,174.323 223.156 C 174.093 223.762,173.947 238.195,173.947 260.431 L 173.947 296.717 173.095 297.624 C 171.757 299.049,163.418 299.007,161.980 297.569 L 161.019 296.608 161.019 264.446 L 161.019 232.284 160.056 231.392 C 159.527 230.902,157.991 230.194,156.642 229.819 C 134.944 223.786,125.813 197.718,139.115 179.776 C 148.162 167.571,167.901 161.019,180.757 165.952 C 181.102 166.085,182.464 164.638,184.550 161.924 C 204.474 136.003,242.076 111.832,256.276 115.816 
M167.762 186.904 C 167.053 187.121,165.786 187.985,164.947 188.824 C 158.934 194.837,165.638 204.541,173.376 201.027 C 181.839 197.182,176.672 184.184,167.762 186.904 
M146.749 203.297 C 145.046 205.178,147.601 207.519,149.396 205.724 C 150.183 204.938,150.199 204.808,149.641 203.812 C 148.898 202.482,147.682 202.266,146.749 203.297 
M286.024 249.921 L 287.169 251.066 287.169 270.794 C 287.169 293.203,287.298 292.262,284.237 292.262 C 281.837 292.262,280.901 291.038,280.901 287.900 L 280.901 285.602 279.608 285.602 C 277.330 285.602,277.375 285.912,277.375 270.323 C 277.375 254.735,277.330 255.044,279.608 255.044 C 280.901 255.044,280.901 255.043,280.901 253.059 C 280.901 249.084,283.559 247.456,286.024 249.921 
M268.890 259.789 C 270.548 260.544,270.715 261.581,270.715 271.090 L 270.715 280.048 269.478 281.089 C 268.069 282.274,266.811 282.187,265.328 280.804 C 264.462 279.995,264.447 279.822,264.447 270.629 L 264.447 261.277 265.408 260.315 C 266.459 259.264,267.421 259.119,268.890 259.789 
M319.561 261.939 C 321.263 263.206,321.318 265.560,319.677 266.941 L 318.451 267.973 306.140 267.973 L 293.830 267.973 293.830 264.431 L 293.830 260.889 306.142 261.003 C 317.945 261.112,318.501 261.151,319.561 261.939 
M319.657 275.255 C 321.259 276.603,321.344 278.744,319.851 280.147 L 318.841 281.097 306.335 281.211 L 293.830 281.324 293.830 277.783 L 293.830 274.241 306.140 274.241 L 318.451 274.241 319.657 275.255 
M153.259 290.313 C 153.446 298.274,153.254 298.531,147.111 298.531 C 142.819 298.531,141.608 298.103,141.042 296.388 C 139.681 292.264,146.108 285.271,151.300 285.226 L 153.140 285.211 153.259 290.313 " stroke="none" fill="#0c1d2e" fill-rule="evenodd"></path>
<path id="path2" d="M217.330 104.701 C 217.185 105.078,216.775 105.387,216.419 105.387 C 213.237 105.387,197.245 121.747,188.614 133.833 C 183.883 140.457,175.906 154.232,175.906 155.778 C 175.906 156.147,174.959 156.328,172.478 156.431 C 169.947 156.537,170.245 156.566,173.617 156.544 C 176.128 156.527,178.101 156.645,178.001 156.807 C 177.901 156.969,178.320 157.101,178.933 157.101 C 179.745 157.101,180.227 156.795,180.715 155.969 C 182.762 152.504,189.854 144.582,203.901 130.069 C 216.016 117.551,218.269 114.137,218.178 108.433 C 218.131 105.430,217.729 103.663,217.330 104.701" stroke="#778791" stroke-width="1.1" fill="#778791" fill-rule="nonzero"></path></g></svg>