<svg id="svg" version="1.1" xmlns="http://www.w3.org/2000/svg" xmlns:xlink="http://www.w3.org/1999/xlink" width="400" height="393.5632183908046" viewBox="0, 0, 400,393.5632183908046"><g id="svgg"><path id="path0" d="M204.331 51.181 C 204.006 51.391,203.297 51.568,202.756 51.575 C 198.472 51.626,189.298 58.931,176.719 72.308 C 163.686 86.166,151.958 103.985,144.508 121.247 C 140.671 130.136,140.229 131.800,141.831 131.325 C 145.161 130.337,149.567 129.806,156.257 129.584 C 162.456 129.378,163.953 129.220,164.213 128.740 C 164.389 128.415,165.575 126.024,166.847 123.425 C 172.199 112.499,180.676 99.403,189.130 89.000 C 200.797 74.645,214.770 61.190,219.587 59.675 C 222.455 58.772,217.714 53.197,212.547 51.398 C 210.631 50.731,205.248 50.588,204.331 51.181 
M265.157 74.449 C 255.679 75.598,238.712 83.674,224.016 94.032 C 207.406 105.737,189.152 122.687,177.306 137.402 C 175.824 139.242,173.970 141.438,173.185 142.281 L 171.758 143.813 168.458 143.106 C 150.606 139.278,131.816 144.619,119.270 157.086 C 114.037 162.287,113.264 163.476,108.266 174.020 C 105.691 179.455,105.478 194.346,107.881 200.991 C 112.904 214.883,121.607 222.789,141.426 231.463 C 144.668 232.882,144.398 228.877,144.564 278.054 L 144.713 322.053 145.596 322.936 C 146.495 323.835,158.844 324.356,159.672 323.529 C 160.378 322.824,160.589 313.024,160.859 268.376 L 161.146 220.806 162.715 219.269 C 166.123 215.928,171.193 217.137,172.429 221.586 C 172.689 222.522,172.831 236.360,172.833 260.827 C 172.837 311.012,173.066 321.421,174.196 322.734 C 175.150 323.844,181.166 324.396,186.302 323.846 C 189.989 323.451,189.747 324.832,190.376 300.593 C 190.910 280.064,191.160 276.869,192.473 273.819 C 199.622 257.207,210.961 249.211,227.362 249.214 C 234.695 249.216,236.674 250.430,236.775 254.991 C 236.858 258.753,234.646 260.184,227.698 260.861 C 220.812 261.532,216.429 262.562,215.354 263.761 C 215.246 263.882,214.449 264.506,213.583 265.148 C 207.854 269.395,203.993 275.603,203.157 281.909 C 202.160 289.441,202.124 322.106,203.113 322.999 C 203.901 323.712,204.856 323.763,220.183 323.912 C 243.150 324.135,249.041 323.649,253.740 321.141 C 254.173 320.910,255.007 320.479,255.593 320.183 C 259.749 318.083,266.996 308.823,269.695 302.165 C 272.394 295.505,272.889 277.575,270.602 269.291 C 269.379 264.862,266.393 257.352,264.630 254.271 C 264.215 253.546,263.219 251.801,262.416 250.394 C 252.655 233.283,226.840 218.152,207.356 218.120 C 199.575 218.108,198.837 217.816,198.825 214.749 C 198.818 212.975,199.744 210.988,202.932 205.939 C 203.485 205.063,203.937 204.199,203.937 204.019 C 203.937 203.838,204.353 202.816,204.862 201.747 C 210.126 190.691,208.453 173.894,200.848 161.424 C 198.227 157.126,198.038 151.575,200.513 151.575 C 200.873 151.575,208.693 148.807,212.402 147.367 C 213.268 147.031,214.331 146.618,214.764 146.450 C 222.133 143.587,228.038 140.737,237.004 135.716 C 239.390 134.380,247.015 129.404,247.810 128.663 C 248.230 128.272,248.689 127.953,248.831 127.953 C 250.486 127.953,270.292 109.601,275.984 102.794 C 277.738 100.697,281.102 95.890,281.102 95.483 C 281.102 95.367,281.535 94.374,282.065 93.277 C 284.254 88.739,284.303 85.268,282.236 81.131 C 279.328 75.313,274.291 73.342,265.157 74.449 
M296.462 143.427 C 295.401 143.956,294.980 145.064,294.921 147.480 C 294.894 148.578,294.528 149.586,293.776 150.630 C 293.168 151.474,292.555 152.470,292.415 152.842 C 292.275 153.214,291.577 153.799,290.864 154.143 C 290.150 154.486,288.947 155.111,288.189 155.532 C 287.312 156.019,286.056 156.298,284.734 156.299 C 281.383 156.300,280.830 159.015,284.058 159.620 C 284.802 159.760,285.640 160.201,285.920 160.602 C 286.201 161.002,287.113 161.518,287.948 161.749 C 289.445 162.162,289.790 162.394,291.732 164.294 C 294.368 166.871,294.882 167.708,294.882 169.420 C 294.882 172.280,297.655 173.949,297.938 171.260 C 298.421 166.679,298.350 166.808,303.046 161.976 C 305.069 159.894,305.728 159.448,306.786 159.443 C 309.869 159.428,310.100 156.639,307.048 156.288 C 305.188 156.074,300.394 152.022,300.394 150.664 C 300.394 150.374,299.966 149.736,299.444 149.245 C 298.747 148.590,298.424 147.752,298.233 146.100 C 297.890 143.147,297.675 142.823,296.462 143.427 
M236.911 170.011 C 236.228 171.935,234.699 173.228,233.109 173.228 C 231.915 173.228,232.095 174.265,233.366 174.719 C 234.875 175.257,236.394 176.735,236.990 178.243 C 237.496 179.524,238.189 179.641,238.189 178.446 C 238.189 177.377,239.881 175.238,241.240 174.590 C 242.610 173.936,242.936 173.228,241.868 173.228 C 240.991 173.228,238.189 170.235,238.189 169.298 C 238.189 167.839,237.557 168.192,236.911 170.011 
M160.855 171.571 C 171.389 176.970,168.083 192.549,156.411 192.511 C 145.001 192.474,141.480 177.071,151.676 171.798 C 154.651 170.260,158.129 170.174,160.855 171.571 
M128.395 193.548 C 130.054 195.049,128.745 198.465,126.289 199.041 C 125.431 199.243,124.979 199.055,124.026 198.102 C 120.852 194.928,125.067 190.536,128.395 193.548 
M273.701 213.465 C 272.483 214.682,274.310 216.250,275.934 215.381 C 277.349 214.624,276.711 212.992,275.000 212.992 C 274.545 212.992,273.961 213.205,273.701 213.465 
M283.390 289.700 L 283.268 299.803 281.964 303.543 C 279.965 309.275,275.915 316.853,273.426 319.517 C 273.209 319.749,272.589 320.589,272.047 321.384 C 271.506 322.179,270.930 322.830,270.768 322.832 C 270.605 322.833,270.472 323.113,270.472 323.452 C 270.472 324.334,282.878 323.891,285.236 322.925 C 295.759 318.614,302.220 306.979,299.955 296.419 C 298.528 289.764,291.119 281.778,284.652 279.923 L 283.512 279.596 283.390 289.700 
M128.543 308.032 C 124.338 309.366,121.658 311.438,119.358 315.132 C 115.305 321.646,116.446 323.999,123.666 324.010 C 132.333 324.023,132.283 324.076,132.283 314.880 C 132.283 307.022,132.202 306.872,128.543 308.032 " stroke="none" fill="#f8f7f8" fill-rule="evenodd"></path>

<path id="path2" d="
M202.756 50.717 C 196.537 52.454,193.512 54.593,183.731 64.168 C 165.978 81.548,151.079 102.775,143.521 121.457 C 142.732 123.406,141.931 125.354,141.741 125.787 C 138.947 132.143,139.239 132.701,144.733 131.501 C 147.708 130.851,150.890 130.567,158.268 130.294 C 169.417 129.882,169.883 129.812,170.767 128.411 C 173.188 124.575,184.227 112.250,199.386 96.457 C 213.923 81.312,218.305 76.189,219.932 72.435 C 226.095 58.213,217.017 46.735,202.756 50.717 
M212.547 51.398 C 217.714 53.197,222.455 58.772,219.587 59.675 C 214.770 61.190,200.797 74.645,189.130 89.000 C 180.676 99.403,172.199 112.499,166.847 123.425 C 165.575 126.024,164.389 128.415,164.213 128.740 C 163.953 129.220,162.456 129.378,156.257 129.584 C 149.567 129.806,145.161 130.337,141.831 131.325 C 138.330 132.363,148.340 111.085,158.883 95.079 C 172.679 74.132,195.338 51.663,202.756 51.575 C 203.297 51.568,204.006 51.391,204.331 51.181 C 205.248 50.588,210.631 50.731,212.547 51.398 
M264.961 73.612 C 249.922 75.511,222.833 91.534,201.379 111.220 C 192.107 119.729,181.643 130.757,175.236 138.773 C 171.747 143.138,172.044 142.986,168.493 142.225 C 164.004 141.263,147.606 141.290,144.117 142.265 C 131.224 145.869,121.664 152.103,113.733 162.079 C 109.977 166.803,106.373 175.759,105.574 182.354 C 102.906 204.379,114.620 221.206,139.764 231.463 C 143.977 233.182,143.476 227.277,143.701 277.928 C 143.921 327.685,143.636 323.348,146.760 324.380 C 149.146 325.167,159.220 324.809,160.125 323.904 C 161.200 322.829,161.319 318.389,161.641 267.323 L 161.933 221.063 163.401 219.587 C 166.441 216.527,171.248 218.172,171.813 222.465 C 171.940 223.426,172.088 246.004,172.144 272.638 C 172.254 325.821,172.106 322.749,174.610 324.012 C 176.118 324.773,185.736 325.072,187.895 324.426 C 190.740 323.574,190.751 323.482,191.355 296.457 C 191.541 288.120,191.883 280.008,192.115 278.429 C 193.138 271.470,198.730 262.553,205.526 257.046 C 211.590 252.133,216.683 250.373,225.625 250.101 C 233.359 249.866,234.557 250.189,235.599 252.794 C 237.551 257.673,235.251 259.515,226.303 260.242 C 218.174 260.902,215.857 261.833,211.037 266.380 C 202.528 274.407,202.038 276.352,201.796 303.072 C 201.620 322.415,201.678 323.147,203.464 324.052 C 206.209 325.442,245.183 324.927,250.108 323.436 C 258.855 320.787,267.640 311.046,271.245 300.000 C 272.994 294.639,273.358 276.381,271.830 270.669 C 266.990 252.575,257.380 239.445,240.945 228.467 C 229.684 220.945,219.196 217.505,205.906 216.976 L 199.803 216.732 199.812 214.567 C 199.819 212.668,200.068 211.989,201.833 209.055 C 207.966 198.861,209.780 190.420,208.235 179.261 C 207.300 172.504,206.244 169.710,201.014 160.150 C 199.744 157.829,199.581 157.226,199.685 155.242 C 199.826 152.542,199.457 152.793,207.380 150.019 C 210.465 148.939,213.919 147.672,215.057 147.205 C 216.195 146.737,217.652 146.156,218.294 145.914 C 220.264 145.170,235.542 137.535,237.026 136.553 C 237.794 136.045,239.034 135.293,239.782 134.881 C 244.176 132.459,253.064 125.934,258.661 121.020 C 280.133 102.171,287.682 89.944,283.185 81.299 C 279.814 74.820,274.187 72.447,264.961 73.612 
M273.011 74.404 C 281.902 75.860,286.173 84.762,282.065 93.277 C 281.535 94.374,281.102 95.367,281.102 95.483 C 281.102 95.890,277.738 100.697,275.984 102.794 C 270.292 109.601,250.486 127.953,248.831 127.953 C 248.689 127.953,248.230 128.272,247.810 128.663 C 247.015 129.404,239.390 134.380,237.004 135.716 C 228.038 140.737,222.133 143.587,214.764 146.450 C 214.331 146.618,213.268 147.031,212.402 147.367 C 208.693 148.807,200.873 151.575,200.513 151.575 C 198.038 151.575,198.227 157.126,200.848 161.424 C 208.453 173.894,210.126 190.691,204.862 201.747 C 204.353 202.816,203.937 203.838,203.937 204.019 C 203.937 204.199,203.485 205.063,202.932 205.939 C 199.744 210.988,198.818 212.975,198.825 214.749 C 198.837 217.816,199.575 218.108,207.356 218.120 C 216.284 218.135,222.254 219.615,231.693 224.155 C 244.206 230.174,257.223 241.290,262.416 250.394 C 263.219 251.801,264.215 253.546,264.630 254.271 C 266.393 257.352,269.379 264.862,270.602 269.291 C 272.889 277.575,272.394 295.505,269.695 302.165 C 266.996 308.823,259.749 318.083,255.593 320.183 C 255.007 320.479,254.173 320.910,253.740 321.141 C 249.041 323.649,243.150 324.135,220.183 323.912 C 204.856 323.763,203.901 323.712,203.113 322.999 C 202.124 322.106,202.160 289.441,203.157 281.909 C 203.993 275.603,207.854 269.395,213.583 265.148 C 214.449 264.506,215.246 263.882,215.354 263.761 C 216.429 262.562,220.812 261.532,227.698 260.861 C 234.646 260.184,236.858 258.753,236.775 254.991 C 236.674 250.430,234.695 249.216,227.362 249.214 C 210.961 249.211,199.622 257.207,192.473 273.819 C 191.160 276.869,190.910 280.064,190.376 300.593 C 189.747 324.832,189.989 323.451,186.302 323.846 C 181.166 324.396,175.150 323.844,174.196 322.734 C 173.066 321.421,172.837 311.012,172.833 260.827 C 172.831 236.360,172.689 222.522,172.429 221.586 C 171.193 217.137,166.123 215.928,162.715 219.269 L 161.146 220.806 160.859 268.376 C 160.589 313.024,160.378 322.824,159.672 323.529 C 158.844 324.356,146.495 323.835,145.596 322.936 L 144.713 322.053 144.564 278.054 C 144.398 228.877,144.668 232.882,141.426 231.463 C 121.607 222.789,112.904 214.883,107.881 200.991 C 105.478 194.346,105.691 179.455,108.266 174.020 C 108.422 173.693,109.637 171.211,110.968 168.504 C 120.566 148.978,145.163 138.111,168.458 143.106 L 171.758 143.813 173.185 142.281 C 173.970 141.438,175.824 139.242,177.306 137.402 C 195.514 114.784,222.438 92.634,245.472 81.325 C 257.469 75.434,266.083 73.269,273.011 74.404 
M296.129 141.404 C 294.608 142.378,294.094 143.489,294.094 145.804 C 294.094 146.756,293.801 147.870,293.406 148.420 C 293.027 148.947,292.362 150.069,291.929 150.913 C 290.935 152.850,287.134 154.906,283.661 155.384 L 281.299 155.709 281.299 157.672 C 281.299 159.470,281.399 159.681,282.480 160.178 C 283.130 160.477,284.104 161.011,284.646 161.365 C 285.187 161.718,286.073 162.188,286.614 162.408 C 290.354 163.926,294.088 168.175,294.101 170.927 C 294.108 172.643,294.416 173.074,296.152 173.799 C 298.143 174.631,298.695 173.999,299.041 170.491 C 299.253 168.341,299.508 167.576,300.245 166.883 C 300.760 166.400,301.184 165.814,301.188 165.581 C 301.191 165.348,301.856 164.528,302.664 163.758 C 305.539 161.020,306.729 160.236,308.013 160.236 C 312.396 160.236,312.005 155.991,307.556 155.281 C 305.834 155.006,301.181 151.041,301.181 149.848 C 301.181 149.583,300.758 148.792,300.241 148.091 C 299.594 147.215,299.216 146.022,299.028 144.271 C 298.650 140.739,298.067 140.163,296.129 141.404 
M298.233 146.100 C 298.424 147.752,298.747 148.590,299.444 149.245 C 299.966 149.736,300.394 150.374,300.394 150.664 C 300.394 152.022,305.188 156.074,307.048 156.288 C 310.100 156.639,309.869 159.428,306.786 159.443 C 305.728 159.448,305.069 159.894,303.046 161.976 C 298.350 166.808,298.421 166.679,297.938 171.260 C 297.655 173.949,294.882 172.280,294.882 169.420 C 294.882 167.708,294.368 166.871,291.732 164.294 C 289.790 162.394,289.445 162.162,287.948 161.749 C 287.113 161.518,286.201 161.002,285.920 160.602 C 285.640 160.201,284.802 159.760,284.058 159.620 C 280.830 159.015,281.383 156.300,284.734 156.299 C 286.056 156.298,287.312 156.019,288.189 155.532 C 288.947 155.111,290.150 154.486,290.864 154.143 C 291.577 153.799,292.275 153.214,292.415 152.842 C 292.555 152.470,293.168 151.474,293.776 150.630 C 294.528 149.586,294.894 148.578,294.921 147.480 C 295.043 142.458,297.682 141.357,298.233 146.100 
M236.848 167.784 C 236.503 168.276,236.220 169.058,236.220 169.522 C 236.220 170.616,234.388 172.441,233.289 172.441 C 230.631 172.441,230.676 174.168,233.371 175.591 C 234.805 176.347,235.443 177.007,236.130 178.445 C 237.250 180.789,238.952 180.860,238.989 178.563 C 239.007 177.495,240.022 176.328,242.046 175.051 C 244.036 173.794,244.104 173.357,242.421 172.652 C 240.720 171.939,239.525 170.608,238.899 168.728 C 238.279 166.864,237.684 166.590,236.848 167.784 
M238.189 169.298 C 238.189 170.235,240.991 173.228,241.868 173.228 C 242.936 173.228,242.610 173.936,241.240 174.590 C 239.881 175.238,238.189 177.377,238.189 178.446 C 238.189 179.641,237.496 179.524,236.990 178.243 C 236.394 176.735,234.875 175.257,233.366 174.719 C 232.095 174.265,231.915 173.228,233.109 173.228 C 234.699 173.228,236.228 171.935,236.911 170.011 C 237.557 168.192,238.189 167.839,238.189 169.298 
M153.934 170.817 C 141.627 174.853,143.637 192.470,156.411 192.511 C 166.262 192.543,170.939 180.926,163.912 173.879 C 161.211 171.170,156.896 169.846,153.934 170.817 
M160.324 172.179 C 170.145 176.523,167.816 190.970,157.184 191.653 C 150.941 192.053,146.913 188.473,146.530 182.182 C 146.055 174.391,153.355 169.097,160.324 172.179 
M236.434 190.524 C 236.143 190.995,236.884 191.462,237.408 191.138 C 237.848 190.866,237.559 190.157,237.008 190.157 C 236.817 190.157,236.559 190.322,236.434 190.524 
M123.848 193.439 C 122.430 194.857,122.496 196.572,124.026 198.102 C 125.995 200.071,129.134 198.479,129.134 195.512 C 129.134 192.920,125.710 191.577,123.848 193.439 
M127.626 193.959 C 128.595 194.835,128.535 196.402,127.490 197.514 C 126.439 198.633,125.445 198.673,124.409 197.638 C 122.138 195.366,125.249 191.807,127.626 193.959 
M228.008 196.193 C 227.332 197.008,227.887 198.031,229.005 198.031 C 229.829 198.031,229.955 197.870,229.849 196.952 C 229.710 195.744,228.719 195.336,228.008 196.193 
M294.793 196.995 C 293.317 198.472,293.609 201.181,295.245 201.181 C 296.875 201.181,297.412 198.812,296.139 197.240 C 295.485 196.432,295.376 196.412,294.793 196.995 
M272.643 212.843 C 271.849 214.745,271.883 215.062,273.013 216.281 C 275.544 219.012,279.133 215.917,277.170 212.697 C 275.969 210.728,273.493 210.808,272.643 212.843 
M276.299 213.465 C 277.506 214.672,275.852 216.173,274.163 215.403 C 272.635 214.707,273.230 212.992,275.000 212.992 C 275.455 212.992,276.039 213.205,276.299 213.465 
M282.717 279.453 C 282.470 279.915,282.479 282.155,282.745 285.817 C 283.476 295.913,282.271 302.308,278.052 310.738 C 276.171 314.494,270.874 322.296,269.720 323.010 C 266.907 324.748,279.299 325.575,284.735 324.012 C 289.306 322.698,296.012 316.384,299.067 310.520 L 300.959 306.890 300.971 301.348 L 300.984 295.807 299.256 292.293 C 295.787 285.241,284.365 276.374,282.717 279.453 
M288.266 281.562 C 305.470 290.684,303.661 315.377,285.236 322.925 C 282.878 323.891,270.472 324.334,270.472 323.452 C 270.472 323.113,270.605 322.833,270.768 322.832 C 270.930 322.830,271.506 322.179,272.047 321.384 C 272.589 320.589,273.209 319.749,273.426 319.517 C 275.915 316.853,279.965 309.275,281.964 303.543 L 283.268 299.803 283.390 289.700 L 283.512 279.596 284.652 279.923 C 285.278 280.103,286.905 280.840,288.266 281.562 
M128.629 307.123 C 121.874 308.713,114.498 318.147,116.746 322.321 C 117.955 324.567,119.031 324.881,125.011 324.735 C 132.733 324.546,133.408 323.698,133.447 314.134 C 133.475 307.310,132.689 306.167,128.629 307.123 
M131.811 307.953 C 132.140 308.282,132.283 310.385,132.283 314.880 C 132.283 324.076,132.333 324.023,123.666 324.010 C 116.446 323.999,115.305 321.646,119.358 315.132 C 122.370 310.294,129.843 305.985,131.811 307.953 " stroke="none" fill="#92aab9" fill-rule="evenodd"></path>

<path id="path2" d="

M212.547 51.398 C 217.714 53.197,222.455 58.772,219.587 59.675 C 214.770 61.190,200.797 74.645,189.130 89.000 C 180.676 99.403,172.199 112.499,166.847 123.425 C 165.575 126.024,164.389 128.415,164.213 128.740 C 163.953 129.220,162.456 129.378,156.257 129.584 C 149.567 129.806,145.161 130.337,141.831 131.325 C 138.330 132.363,148.340 111.085,158.883 95.079 C 172.679 74.132,195.338 51.663,202.756 51.575 C 203.297 51.568,204.006 51.391,204.331 51.181 C 205.248 50.588,210.631 50.731,212.547 51.398 
M264.961 73.612 C 249.922 75.511,222.833 91.534,201.379 111.220 C 192.107 119.729,181.643 130.757,175.236 138.773 C 171.747 143.138,172.044 142.986,168.493 142.225 C 164.004 141.263,147.606 141.290,144.117 142.265 C 131.224 145.869,121.664 152.103,113.733 162.079 C 109.977 166.803,106.373 175.759,105.574 182.354 C 102.906 204.379,114.620 221.206,139.764 231.463 C 143.977 233.182,143.476 227.277,143.701 277.928 C 143.921 327.685,143.636 323.348,146.760 324.380 C 149.146 325.167,159.220 324.809,160.125 323.904 C 161.200 322.829,161.319 318.389,161.641 267.323 L 161.933 221.063 163.401 219.587 C 166.441 216.527,171.248 218.172,171.813 222.465 C 171.940 223.426,172.088 246.004,172.144 272.638 C 172.254 325.821,172.106 322.749,174.610 324.012 C 176.118 324.773,185.736 325.072,187.895 324.426 C 190.740 323.574,190.751 323.482,191.355 296.457 C 191.541 288.120,191.883 280.008,192.115 278.429 C 193.138 271.470,198.730 262.553,205.526 257.046 C 211.590 252.133,216.683 250.373,225.625 250.101 C 233.359 249.866,234.557 250.189,235.599 252.794 C 237.551 257.673,235.251 259.515,226.303 260.242 C 218.174 260.902,215.857 261.833,211.037 266.380 C 202.528 274.407,202.038 276.352,201.796 303.072 C 201.620 322.415,201.678 323.147,203.464 324.052 C 206.209 325.442,245.183 324.927,250.108 323.436 C 258.855 320.787,267.640 311.046,271.245 300.000 C 272.994 294.639,273.358 276.381,271.830 270.669 C 266.990 252.575,257.380 239.445,240.945 228.467 C 229.684 220.945,219.196 217.505,205.906 216.976 L 199.803 216.732 199.812 214.567 C 199.819 212.668,200.068 211.989,201.833 209.055 C 207.966 198.861,209.780 190.420,208.235 179.261 C 207.300 172.504,206.244 169.710,201.014 160.150 C 199.744 157.829,199.581 157.226,199.685 155.242 C 199.826 152.542,199.457 152.793,207.380 150.019 C 210.465 148.939,213.919 147.672,215.057 147.205 C 216.195 146.737,217.652 146.156,218.294 145.914 C 220.264 145.170,235.542 137.535,237.026 136.553 C 237.794 136.045,239.034 135.293,239.782 134.881 C 244.176 132.459,253.064 125.934,258.661 121.020 C 280.133 102.171,287.682 89.944,283.185 81.299 C 279.814 74.820,274.187 72.447,264.961 73.612 
M273.011 74.404 C 281.902 75.860,286.173 84.762,282.065 93.277 C 281.535 94.374,281.102 95.367,281.102 95.483 C 281.102 95.890,277.738 100.697,275.984 102.794 C 270.292 109.601,250.486 127.953,248.831 127.953 C 248.689 127.953,248.230 128.272,247.810 128.663 C 247.015 129.404,239.390 134.380,237.004 135.716 C 228.038 140.737,222.133 143.587,214.764 146.450 C 214.331 146.618,213.268 147.031,212.402 147.367 C 208.693 148.807,200.873 151.575,200.513 151.575 C 198.038 151.575,198.227 157.126,200.848 161.424 C 208.453 173.894,210.126 190.691,204.862 201.747 C 204.353 202.816,203.937 203.838,203.937 204.019 C 203.937 204.199,203.485 205.063,202.932 205.939 C 199.744 210.988,198.818 212.975,198.825 214.749 C 198.837 217.816,199.575 218.108,207.356 218.120 C 216.284 218.135,222.254 219.615,231.693 224.155 C 244.206 230.174,257.223 241.290,262.416 250.394 C 263.219 251.801,264.215 253.546,264.630 254.271 C 266.393 257.352,269.379 264.862,270.602 269.291 C 272.889 277.575,272.394 295.505,269.695 302.165 C 266.996 308.823,259.749 318.083,255.593 320.183 C 255.007 320.479,254.173 320.910,253.740 321.141 C 249.041 323.649,243.150 324.135,220.183 323.912 C 204.856 323.763,203.901 323.712,203.113 322.999 C 202.124 322.106,202.160 289.441,203.157 281.909 C 203.993 275.603,207.854 269.395,213.583 265.148 C 214.449 264.506,215.246 263.882,215.354 263.761 C 216.429 262.562,220.812 261.532,227.698 260.861 C 234.646 260.184,236.858 258.753,236.775 254.991 C 236.674 250.430,234.695 249.216,227.362 249.214 C 210.961 249.211,199.622 257.207,192.473 273.819 C 191.160 276.869,190.910 280.064,190.376 300.593 C 189.747 324.832,189.989 323.451,186.302 323.846 C 181.166 324.396,175.150 323.844,174.196 322.734 C 173.066 321.421,172.837 311.012,172.833 260.827 C 172.831 236.360,172.689 222.522,172.429 221.586 C 171.193 217.137,166.123 215.928,162.715 219.269 L 161.146 220.806 160.859 268.376 C 160.589 313.024,160.378 322.824,159.672 323.529 C 158.844 324.356,146.495 323.835,145.596 322.936 L 144.713 322.053 144.564 278.054 C 144.398 228.877,144.668 232.882,141.426 231.463 C 121.607 222.789,112.904 214.883,107.881 200.991 C 105.478 194.346,105.691 179.455,108.266 174.020 C 108.422 173.693,109.637 171.211,110.968 168.504 C 120.566 148.978,145.163 138.111,168.458 143.106 L 171.758 143.813 173.185 142.281 C 173.970 141.438,175.824 139.242,177.306 137.402 C 195.514 114.784,222.438 92.634,245.472 81.325 C 257.469 75.434,266.083 73.269,273.011 74.404 
M296.129 141.404 C 294.608 142.378,294.094 143.489,294.094 145.804 C 294.094 146.756,293.801 147.870,293.406 148.420 C 293.027 148.947,292.362 150.069,291.929 150.913 C 290.935 152.850,287.134 154.906,283.661 155.384 L 281.299 155.709 281.299 157.672 C 281.299 159.470,281.399 159.681,282.480 160.178 C 283.130 160.477,284.104 161.011,284.646 161.365 C 285.187 161.718,286.073 162.188,286.614 162.408 C 290.354 163.926,294.088 168.175,294.101 170.927 C 294.108 172.643,294.416 173.074,296.152 173.799 C 298.143 174.631,298.695 173.999,299.041 170.491 C 299.253 168.341,299.508 167.576,300.245 166.883 C 300.760 166.400,301.184 165.814,301.188 165.581 C 301.191 165.348,301.856 164.528,302.664 163.758 C 305.539 161.020,306.729 160.236,308.013 160.236 C 312.396 160.236,312.005 155.991,307.556 155.281 C 305.834 155.006,301.181 151.041,301.181 149.848 C 301.181 149.583,300.758 148.792,300.241 148.091 C 299.594 147.215,299.216 146.022,299.028 144.271 C 298.650 140.739,298.067 140.163,296.129 141.404 
M298.233 146.100 C 298.424 147.752,298.747 148.590,299.444 149.245 C 299.966 149.736,300.394 150.374,300.394 150.664 C 300.394 152.022,305.188 156.074,307.048 156.288 C 310.100 156.639,309.869 159.428,306.786 159.443 C 305.728 159.448,305.069 159.894,303.046 161.976 C 298.350 166.808,298.421 166.679,297.938 171.260 C 297.655 173.949,294.882 172.280,294.882 169.420 C 294.882 167.708,294.368 166.871,291.732 164.294 C 289.790 162.394,289.445 162.162,287.948 161.749 C 287.113 161.518,286.201 161.002,285.920 160.602 C 285.640 160.201,284.802 159.760,284.058 159.620 C 280.830 159.015,281.383 156.300,284.734 156.299 C 286.056 156.298,287.312 156.019,288.189 155.532 C 288.947 155.111,290.150 154.486,290.864 154.143 C 291.577 153.799,292.275 153.214,292.415 152.842 C 292.555 152.470,293.168 151.474,293.776 150.630 C 294.528 149.586,294.894 148.578,294.921 147.480 C 295.043 142.458,297.682 141.357,298.233 146.100 
M236.848 167.784 C 236.503 168.276,236.220 169.058,236.220 169.522 C 236.220 170.616,234.388 172.441,233.289 172.441 C 230.631 172.441,230.676 174.168,233.371 175.591 C 234.805 176.347,235.443 177.007,236.130 178.445 C 237.250 180.789,238.952 180.860,238.989 178.563 C 239.007 177.495,240.022 176.328,242.046 175.051 C 244.036 173.794,244.104 173.357,242.421 172.652 C 240.720 171.939,239.525 170.608,238.899 168.728 C 238.279 166.864,237.684 166.590,236.848 167.784 
M238.189 169.298 C 238.189 170.235,240.991 173.228,241.868 173.228 C 242.936 173.228,242.610 173.936,241.240 174.590 C 239.881 175.238,238.189 177.377,238.189 178.446 C 238.189 179.641,237.496 179.524,236.990 178.243 C 236.394 176.735,234.875 175.257,233.366 174.719 C 232.095 174.265,231.915 173.228,233.109 173.228 C 234.699 173.228,236.228 171.935,236.911 170.011 C 237.557 168.192,238.189 167.839,238.189 169.298 
M153.934 170.817 C 141.627 174.853,143.637 192.470,156.411 192.511 C 166.262 192.543,170.939 180.926,163.912 173.879 C 161.211 171.170,156.896 169.846,153.934 170.817 
M160.324 172.179 C 170.145 176.523,167.816 190.970,157.184 191.653 C 150.941 192.053,146.913 188.473,146.530 182.182 C 146.055 174.391,153.355 169.097,160.324 172.179 
M236.434 190.524 C 236.143 190.995,236.884 191.462,237.408 191.138 C 237.848 190.866,237.559 190.157,237.008 190.157 C 236.817 190.157,236.559 190.322,236.434 190.524 
M123.848 193.439 C 122.430 194.857,122.496 196.572,124.026 198.102 C 125.995 200.071,129.134 198.479,129.134 195.512 C 129.134 192.920,125.710 191.577,123.848 193.439 
M127.626 193.959 C 128.595 194.835,128.535 196.402,127.490 197.514 C 126.439 198.633,125.445 198.673,124.409 197.638 C 122.138 195.366,125.249 191.807,127.626 193.959 
M228.008 196.193 C 227.332 197.008,227.887 198.031,229.005 198.031 C 229.829 198.031,229.955 197.870,229.849 196.952 C 229.710 195.744,228.719 195.336,228.008 196.193 
M294.793 196.995 C 293.317 198.472,293.609 201.181,295.245 201.181 C 296.875 201.181,297.412 198.812,296.139 197.240 C 295.485 196.432,295.376 196.412,294.793 196.995 
M272.643 212.843 C 271.849 214.745,271.883 215.062,273.013 216.281 C 275.544 219.012,279.133 215.917,277.170 212.697 C 275.969 210.728,273.493 210.808,272.643 212.843 
M276.299 213.465 C 277.506 214.672,275.852 216.173,274.163 215.403 C 272.635 214.707,273.230 212.992,275.000 212.992 C 275.455 212.992,276.039 213.205,276.299 213.465 
M282.717 279.453 C 282.470 279.915,282.479 282.155,282.745 285.817 C 283.476 295.913,282.271 302.308,278.052 310.738 C 276.171 314.494,270.874 322.296,269.720 323.010 C 266.907 324.748,279.299 325.575,284.735 324.012 C 289.306 322.698,296.012 316.384,299.067 310.520 L 300.959 306.890 300.971 301.348 L 300.984 295.807 299.256 292.293 C 295.787 285.241,284.365 276.374,282.717 279.453 
M288.266 281.562 C 305.470 290.684,303.661 315.377,285.236 322.925 C 282.878 323.891,270.472 324.334,270.472 323.452 C 270.472 323.113,270.605 322.833,270.768 322.832 C 270.930 322.830,271.506 322.179,272.047 321.384 C 272.589 320.589,273.209 319.749,273.426 319.517 C 275.915 316.853,279.965 309.275,281.964 303.543 L 283.268 299.803 283.390 289.700 L 283.512 279.596 284.652 279.923 C 285.278 280.103,286.905 280.840,288.266 281.562 
M128.629 307.123 C 121.874 308.713,114.498 318.147,116.746 322.321 C 117.955 324.567,119.031 324.881,125.011 324.735 C 132.733 324.546,133.408 323.698,133.447 314.134 C 133.475 307.310,132.689 306.167,128.629 307.123 
M131.811 307.953 C 132.140 308.282,132.283 310.385,132.283 314.880 C 132.283 324.076,132.333 324.023,123.666 324.010 C 116.446 323.999,115.305 321.646,119.358 315.132 C 122.370 310.294,129.843 305.985,131.811 307.953 " stroke="#ddd" stroke-width="1px" fill="#ddd" fill-rule="evenodd"></path>


</g></svg>